<svg xmlns="http://www.w3.org/2000/svg" viewBox="0 0 1000 600" fill="none">
  <defs>
    <pattern id="pattern-mesh" x="0" y="0" width="15.000" height="15.000" patternUnits="userSpaceOnUse">
      <path d="M7.500 0.000 L15.000 7.500 L7.500 15.000 L0.000 7.500 Z" stroke="#D2B48C" stroke-width="0.300" fill="none"/>
    </pattern>

    <style>
      .outer-arch { stroke: #C5A267; stroke-width: 2.500; fill: none; stroke-linecap: round; stroke-linejoin: round; }
      .inner-arch { stroke: #D2B48C; stroke-width: 1.000; fill: url(#pattern-mesh); opacity: 0.400; stroke-linecap: round; stroke-linejoin: round; }
      .draw-effect {
        stroke-dasharray: 2500;
        stroke-dashoffset: 2500;
        animation: drawPath 3.5s forwards ease-in-out;
      }
      @keyframes drawPath { to { stroke-dashoffset: 0; } }
    </style>
  </defs>

  <g class="draw-effect">
    <path class="outer-arch" d="
      M20.000,600.000
      L300.000,600.000
      L300.000,280.000
      C300.000,120.000 20.000,120.000 20.000,280.000
      L20.000,600.000
      Z" />
    <path class="inner-arch" d="
      M35.000,585.000
      L285.000,585.000
      L285.000,285.000
      C285.000,140.000 35.000,140.000 35.000,285.000
      L35.000,585.000
      Z" />
  </g>

  <g class="draw-effect">
    <path class="outer-arch" d="
      M360.000,600.000
      L640.000,600.000
      L640.000,280.000
      C640.000,120.000 360.000,120.000 360.000,280.000
      L360.000,600.000
      Z" />
    <path class="inner-arch" d="
      M375.000,585.000
      L625.000,585.000
      L625.000,285.000
      C625.000,140.000 375.000,140.000 375.000,285.000
      L375.000,585.000
      Z" />
  </g>

  <g class="draw-effect">
    <path class="outer-arch" d="
      M700.000,600.000
      L980.000,600.000
      L980.000,280.000
      C980.000,120.000 700.000,120.000 700.000,280.000
      L700.000,600.000
      Z" />
    <path class="inner-arch" d="
      M715.000,585.000
      L965.000,585.000
      L965.000,285.000
      C965.000,140.000 715.000,140.000 715.000,285.000
      L715.000,585.000
      Z" />
  </g>
</svg>