<?xml version="1.0" encoding="utf-8"?>
<svg xmlns="http://www.w3.org/2000/svg"
     viewBox="600 550 800 900"
     preserveAspectRatio="xMidYMid meet"
     xml:space="preserve">

  <style type="text/css">
    .st0{fill:#F4F0EA;}
    .st1{fill:#002349;}
    .st2{fill:#BDA786;stroke:#F4F0EA;stroke-width:10;stroke-linecap:round;stroke-linejoin:round;stroke-miterlimit:10;}
    .st3{fill:#F4F0EA;stroke:#002349;stroke-width:10;stroke-miterlimit:10;}
    .st4{fill:#002349;stroke:#002349;stroke-width:10;stroke-miterlimit:10;}
  </style>

  <path class="st0" d="M623.5,1400V600c0-13.81,11.19-25,25-25h703c13.81,0,25,11.19,25,25l0,800c0,13.81-11.19,25-25,25h-703
    C634.69,1425,623.5,1413.81,623.5,1400z"/>

  <path class="st1" d="M623.5,575h198c13.81,0,25,11.19,25,25v220c0,13.81,11.19,25,25,25h480c13.81,0,25,11.19,25,25l0,555h-753"/>

  <path class="st1" d="M891.5,775V575h485v225h-460C902.69,800,891.5,788.81,891.5,775z"/>

  <g>
    <path class="st2" d="M1001.5,927c-110.81,55.8-199.6,150.6-155,282c3,9,3.51,9,7,21c3,10,6,10,3,15
      c-3.22,3.22-12.2,11.05-19.83,17.61c-7.73,6.65-12.17,16.32-12.17,26.51c0,29.36,0,92.1,0,130.87c118.15,0,238.22,0,354,0
      c0.23-46.15-0.15-87.3-0.05-131.35c0.02-10.3-4.49-20.09-12.35-26.75c-7.67-6.5-15.89-13.19-19.6-16.9c-3-5,0-5,3-15
      c3.96-12,4-12,7-21C1198.81,1079.11,1110.91,980.91,1001.5,927"/>

    <path class="st2" d="M908.5,1420c0-72.9,0-128.17,0-200c9.23-46.46,48.41-118.18,93-135c43.14,19.95,84.35,88.05,93,135
      c0,72.88,0,127.58,0,200"/>
  </g>

  <g>
    <path class="st3" d="M908.5,1420c0-72.9,0-128.17,0-200c9.23-46.46,48.41-118.18,93-135c43.14,19.95,84.35,88.05,93,135
      c0,70.4,0,126.9,0,200H908.5z"/>
  </g>

  <line class="st4" x1="819.5" y1="1420" x2="1183.57" y2="1420"/>
</svg>
