<?xml version="1.0" encoding="utf-8"?>
<svg xmlns="http://www.w3.org/2000/svg"
     viewBox="0 0 753 850"
     preserveAspectRatio="xMidYMid meet"
     xml:space="preserve">
  <style type="text/css">
    .st0{fill:#F4F0EA;}
    .st1{fill:#002349;}
    .st2{fill:#BDA786;stroke:#BDA786;stroke-width:10;stroke-linecap:round;stroke-linejoin:round;stroke-miterlimit:10;}
    .st3{fill:#F4F0EA;stroke:#002349;stroke-width:10;stroke-linecap:round;stroke-linejoin:round;stroke-miterlimit:10;}
    .st4{fill:#002349;stroke:#002349;stroke-width:10;stroke-miterlimit:10;}
  </style>

  <path class="st0" d="M0,825L0,25C0,11.19,11.19,0,25,0l703,0c13.81,0,25,11.19,25,25l0,800c0,13.81-11.19,25-25,25H25
    C11.19,850,0,838.81,0,825z"/>

  <path class="st1" d="M0,0l223,0l0,245c0,13.81,11.19,25,25,25h505l0,580H0"/>
  <path class="st1" d="M268,200V0l485,0v225H293C279.19,225,268,213.81,268,200z"/>

  <g>
    <path class="st2" d="M376.46,352c-110.81,55.8-199.6,150.6-155,282c3,9,3.51,9,7,21c3,10,6,10,3,15
      c-3.22,3.22-12.2,11.05-19.83,17.61c-7.73,6.65-12.17,16.32-12.17,26.51c0,29.36,0,92.1,0,130.87c118.15,0,238.22,0,354,0
      c0.23-46.15-0.15-87.3-0.05-131.35c0.02-10.3-4.49-20.09-12.35-26.75c-7.67-6.5-15.89-13.19-19.6-16.9c-3-5,0-5,3-15
      c3.96-12,4-12,7-21C573.77,504.11,485.87,405.91,376.46,352"/>
    <path class="st3" d="M376.5,444.88c-42.41,0-147.72,59.8-114.72,190.41c2.22,8.95,2.6,8.95,5.18,20.87
      c2.22,9.94,4.44,9.94,2.22,14.91c-2.38,3.2-9.03,10.98-14.67,17.5c-5.72,6.61-9.01,16.22-9.01,26.35c0,29.18,0,91.54,0,130.08
      c87.42,0,176.27,0,261.95,0c0.17-45.87-0.11-86.77-0.04-130.55c0.02-10.23-3.33-19.96-9.14-26.58c-5.68-6.46-11.76-13.11-14.5-16.8
      c-2.22-4.97,0-4.97,2.22-14.91c2.93-11.93,2.96-11.93,5.18-20.87C522.47,506.18,418.91,444.88,376.5,444.88"/>
  </g>

  <line class="st4" x1="191.5" y1="845" x2="561.5" y2="845"/>
</svg>