<?xml version="1.0" encoding="utf-8"?>
<svg xmlns="http://www.w3.org/2000/svg"
     viewBox="0 0 1690 516.6"
     preserveAspectRatio="xMidYMid meet"
     xml:space="preserve">
  <style type="text/css">
    .st0{fill:#002349;}
  </style>

  <g>
    <path class="st0" d="M200.95,138.87c-13.74,0-21.92,4.58-35,12.1v106.64l21.59,5.89v4.25h-69.68v-4.25l20.28-5.89v-84.07
      c0-25.19-8.51-34.68-30.1-34.68c-13.74,0-20.94,2.62-34.02,10.14v108.61l20.28,5.89v4.25H24.62v-4.25l21.59-5.89V144.1
      l-21.26-13.74v-2.94l45.8-11.78l1.31,0.98L71.4,142.8l1.31,0.65c19.3-18.32,35.66-27.48,53.32-27.48
      c21.26,0,32.39,13.74,36.97,28.79l1.64,0.65c19.3-18.32,36.64-29.77,54.3-29.77c29.44,0,39.58,22.57,39.58,45.8v96.18l21.92,5.89
      v4.25h-70.01v-4.25l20.61-5.89v-82.11C231.04,150.65,222.54,138.87,200.95,138.87z"/>
    <path class="st0" d="M326.89,179.43c0,43.51,14.72,73.28,51.69,73.28c16.03,0,29.44-3.6,48.09-13.09l1.96,3.93
      c-20.28,19.3-38.6,29.44-59.87,29.44c-41.87,0-71.64-30.75-71.64-76.22c0-46.12,31.73-80.8,72.3-80.8s60.85,27.15,60.85,63.46
      H326.89z M398.86,170.28c-2.29-28.13-11.45-47.11-31.73-47.11c-20.94,0-37.95,19.63-39.91,49.4L398.86,170.28z"/>
    <path class="st0" d="M610.84,257.95v3.27l-44.16,12.1l-1.64-0.65l-2.62-21.59l-1.31-0.65l-8.18,7.2
      c-9.49,8.83-21.26,15.38-38.6,15.38c-30.1,0-59.54-25.52-59.54-73.93c0-42.53,27.48-83.09,82.11-83.09
      c10.14,0,17.01,0.65,24.86,2.29V55.45l-23.88-14.07v-3.27l50.05-12.76l1.31,0.65v223.43L610.84,257.95z M531.02,254.02
      c12.43,0,22.9-4.25,30.75-12.43v-97.81c-8.18-12.1-19.63-19.96-35-19.96c-20.94,0-42.85,20.61-42.85,69.68
      C483.91,229.49,503.21,254.02,531.02,254.02z"/>
    <path class="st0" d="M627.52,130.37v-2.94l47.76-11.78l1.31,0.98v140.99l21.92,5.89v4.25h-72.3v-4.25l22.9-5.89V144.1
      L627.52,130.37z M663.84,48.25c10.14,0,17.67,7.52,17.67,17.67c0,10.47-8.51,19.96-19.63,19.96c-10.14,0-17.34-7.52-17.34-17.99
      C644.54,57.74,653.04,48.25,663.84,48.25z"/>
    <path class="st0" d="M862.08,257.62l21.59,5.89v4.25h-69.68v-4.25l20.61-5.89v-82.11c0-24.86-8.83-36.64-30.75-36.64
      c-13.74,0-23.55,2.62-36.64,10.14v108.61l20.28,5.89v4.25h-69.68v-4.25l21.59-5.89V144.1l-21.26-13.74v-2.94l45.8-11.78l1.31,0.98
      l-0.65,26.17l1.31,0.65c19.63-18.32,38.27-27.48,55.94-27.48c29.44,0,40.24,22.25,40.24,45.47V257.62z"/>
    <path class="st0" d="M1016.16,249.11c0,9.49,7.85,12.43,27.48,10.47l0.65,3.6c-6.22,4.25-22.57,9.81-34.35,9.81
      c-12.43,0-18.97-6.87-19.96-24.21l-1.31-0.65c-15.05,15.05-31.73,24.86-49.4,24.86c-21.26,0-35-12.43-35-32.39
      c0-29.44,35-45.47,84.4-52.01v-24.54c0-21.92-14.07-33.37-33.69-33.37c-7.2,0-15.7,1.63-24.21,4.91
      c7.2,5.89,10.14,12.76,10.14,18.97c0,8.18-6.22,15.7-15.38,15.7c-9.81,0-15.7-7.52-15.7-16.03c0-20.61,34.02-37.95,65.1-37.95
      c28.79,0,41.22,15.38,41.22,44.82V249.11z M988.68,198.08c-41.87,0-55.61,15.05-55.61,32.71c0,14.07,9.16,22.57,23.55,22.57
      c8.83,0,19.96-3.27,32.06-9.81V198.08z"/>
    <path class="st0" d="M1176.45,272.67c-16.36,0-29.77-2.29-44.82-8.83v-41.22l6.87-0.65c10.79,30.1,25.84,42.53,43.51,42.53
      c17.34,0,28.46-10.14,28.46-27.48c0-17.67-17.34-24.53-35.66-32.06c-19.96-8.51-40.89-17.99-40.89-43.51
      c0-25.84,19.96-45.8,51.36-45.8c12.76,0,29.77,2.94,38.6,6.22l0.98,36.97l-5.89,1.64c-12.76-26.17-25.19-36.64-39.58-36.64
      c-14.72,0-24.54,8.5-24.54,22.25c0,17.67,17.67,24.54,36.31,32.39c20.28,8.51,41.87,17.99,41.87,44.49
      C1233.04,253.37,1208.51,272.67,1176.45,272.67z"/>
    <path class="st0" d="M1304.69,270.38c-24.86,0-32.06-11.12-32.06-34.35v-100.1h-22.9v-4.25l25.52-17.01l19.3-29.77h5.56v36.97
      h49.72v14.07h-49.72v88.98c0,11.78,0.98,19.3,7.85,23.88c4.58,2.62,12.76,3.93,24.21,3.93c5.23,0,11.45-0.33,18.32-0.65l0.33,3.27
      C1336.42,264.16,1320.07,270.38,1304.69,270.38z"/>
    <path class="st0" d="M1478.73,249.11c0,9.49,7.85,12.43,27.48,10.47l0.65,3.6c-6.22,4.25-22.57,9.81-34.35,9.81
      c-12.43,0-18.97-6.87-19.96-24.21l-1.31-0.65c-15.05,15.05-31.73,24.86-49.4,24.86c-21.26,0-35-12.43-35-32.39
      c0-29.44,35-45.47,84.4-52.01v-24.54c0-21.92-14.07-33.37-33.69-33.37c-7.2,0-15.7,1.63-24.21,4.91
      c7.2,5.89,10.14,12.76,10.14,18.97c0,8.18-6.22,15.7-15.38,15.7c-9.81,0-15.7-7.52-15.7-16.03c0-20.61,34.02-37.95,65.1-37.95
      c28.79,0,41.22,15.38,41.22,44.82V249.11z M1451.25,198.08c-41.87,0-55.61,15.05-55.61,32.71c0,14.07,9.16,22.57,23.55,22.57
      c8.83,0,19.96-3.27,32.06-9.81V198.08z"/>
    <path class="st0" d="M1579.81,296.55c-10.79,26.82-24.53,39.91-42.85,39.91c-15.38,0-21.92-9.49-21.92-18.32
      c0-8.83,7.52-15.7,16.68-15.7c10.14,0,16.03,6.22,22.9,15.38c6.21-5.89,12.1-14.72,17.01-25.52l9.49-21.59l-56.92-138.38
      l-19.96-6.87v-4.25h74.59v4.25l-22.9,6.87l38.28,101.74h1.64l35.33-99.12l-20.61-9.49v-4.25h55.94v4.25l-22.25,10.14
      L1579.81,296.55z"/>
  </g>

  <g>
    <path class="st0" d="M25.36,394.92h32.72c20.85,0,34.8,8.11,34.8,27.04c0,20.34-15.38,27.94-35.58,27.94H36.83v40.3H25.36V394.92z
      M57.95,439.86c15.38,0,23.59-4.64,23.59-17.51c0-12.23-8.08-17.13-23.72-17.13H36.83v34.64H57.95z"/>
    <path class="st0" d="M109.95,394.92h33.11c21.9,0,34.28,9.14,34.28,26.66c0,15.32-8.73,23.31-22.42,26.14l23.72,42.49h-12.51
      l-23.07-41.08h-21.77v41.08h-11.34V394.92z M142.4,439.08c15.12,0,23.59-4.12,23.59-17.13c0-12.49-8.34-16.74-23.72-16.74h-20.98
      v33.87H142.4z"/>
    <path class="st0" d="M193.49,442.56c0-30.65,17.86-49.45,41.71-49.45c23.85,0,41.45,18.8,41.45,49.45
      c0,30.65-17.6,49.45-41.45,49.45C211.35,492.01,193.49,473.21,193.49,442.56z M265.18,442.56c0-24.85-12.51-39.15-29.98-39.15
      c-17.73,0-30.11,14.29-30.11,39.15s12.38,39.27,30.11,39.27C252.66,481.83,265.18,467.41,265.18,442.56z"/>
    <path class="st0" d="M295.8,394.92h32.72c20.85,0,34.8,8.11,34.8,27.04c0,20.34-15.38,27.94-35.58,27.94h-20.46v40.3H295.8V394.92z
      M328.39,439.86c15.38,0,23.59-4.64,23.59-17.51c0-12.23-8.08-17.13-23.72-17.13h-20.98v34.64H328.39z"/>
    <path class="st0" d="M380.39,394.92h59.17v10.43h-47.7v29.75h35.45v10.17h-35.45v34.64h50.44v10.3h-61.91V394.92z"/>
    <path class="st0" d="M459.76,394.92h33.11c21.9,0,34.28,9.14,34.28,26.66c0,15.32-8.73,23.31-22.42,26.14l23.72,42.49h-12.51
      l-23.07-41.08H471.1v41.08h-11.34V394.92z M492.21,439.08c15.12,0,23.59-4.12,23.59-17.13c0-12.49-8.34-16.74-23.72-16.74H471.1
      v33.87H492.21z"/>
    <path class="st0" d="M570.93,405.35H540.3v-10.43h72.86v10.43H582.4v84.86h-11.47V405.35z"/>
    <path class="st0" d="M652.65,448.48l-32.45-53.57h12.25l26.2,43.91l26.07-43.91h11.99l-32.58,53.57v41.72h-11.47V448.48z"/>
    <path class="st0" d="M741.93,394.92h14.99l30.37,81h0.26l29.85-81h15.25v95.29H821.3v-77.13h-0.26c-1.3,5.02-3.65,11.2-5.87,17.51
      l-23.07,59.62h-10.3l-23.07-59.62c-2.35-6.31-3.91-10.3-6-17.9h-0.26v77.52h-10.56V394.92z"/>
    <path class="st0" d="M882.82,394.53h11.99l34.15,95.68H917.1l-9.51-27.3h-38.32l-9.51,27.3h-11.08L882.82,394.53z M904.06,452.99
      l-15.38-44.68h-0.26l-15.64,44.68H904.06z"/>
    <path class="st0" d="M944.99,394.92h12.12l50.7,75.33h0.26v-75.33h10.82v95.29h-10.3l-52.53-77.39h-0.26v77.39h-10.82V394.92z"/>
    <path class="st0" d="M1069.06,394.53h11.99l34.15,95.68h-11.86l-9.51-27.3h-38.32l-9.51,27.3h-11.08L1069.06,394.53z
      M1090.31,452.99l-15.38-44.68h-0.26l-15.64,44.68H1090.31z"/>
    <path class="st0" d="M1126.54,442.17c0-30.26,16.94-49.06,41.06-49.06c18.25,0,30.63,9.53,35.71,29.49l-10.69,2.7
      c-4.56-15.32-11.73-21.76-25.16-21.76c-15.12,0-29.33,11.46-29.33,38.24c0,26.66,12.64,40.05,29.72,40.05
      c14.99,0,25.16-10.04,25.42-27.69h-22.16v-9.53h33.24v45.58h-10.04v-14.29h-0.26c-3.78,7.85-12.25,16.1-27.24,16.1
      C1140.75,492.01,1126.54,471.02,1126.54,442.17z"/>
    <path class="st0" d="M1226.38,394.92h59.17v10.43h-47.7v29.75h35.45v10.17h-35.45v34.64h50.44v10.3h-61.91V394.92z"/>
    <path class="st0" d="M1305.75,394.92h14.99l30.37,81h0.26l29.85-81h15.25v95.29h-11.34v-77.13h-0.26c-1.3,5.02-3.65,11.2-5.87,17.51
      l-23.07,59.62h-10.3l-23.07-59.62c-2.35-6.31-3.91-10.3-6-17.9h-0.26v77.52h-10.56V394.92z"/>
    <path class="st0" d="M1420.18,394.92h59.17v10.43h-47.7v29.75h35.45v10.17h-35.45v34.64h50.44v10.3h-61.91V394.92z"/>
    <path class="st0" d="M1499.55,394.92h12.12l50.7,75.33h0.26v-75.33h10.82v95.29h-10.3l-52.53-77.39h-0.26v77.39h-10.82V394.92z"/>
    <path class="st0" d="M1620.11,405.35h-30.63v-10.43h72.86v10.43h-30.76v84.86h-11.47V405.35z"/>
  </g>
</svg>